{"title":"Queen Of The Damned (1080p-10bit)-CRF16","uid":8677286,"size":5033092095,"categoryP":"video","categoryS":"hd___movies","magnet":"?xt=urn:btih:857a851d2b726e4ed41c47ff1620c08ff272a438&amp;dn=Queen+Of+The+Damned+%281080p-10bit%29-CRF16&amp;tr=udp%3A%2F%2Ftracker.openbittorrent.com%3A80&amp;tr=udp%3A%2F%2Fopen.demonii.com%3A1337&amp;tr=udp%3A%2F%2Ftracker.coppersurfer.tk%3A6969&amp;tr=udp%3A%2F%2Fexodus.desync.com%3A6969","seeders":1,"leechers":0,"uploader":"AV_dude","files":1,"time":1373628227,"description":"Will play in any recent build of Media Player Classic Home Cinema. \n\nGeneral \nUnique ID : 243873382238492488576906831105381215419 (0xB7784E1126C6E04EB28F91A59185ACBB) \nComplete name : H:OUTQueen Of The Damned (1080p-10bit).mkv \nFormat : Matroska \nFormat version : Version 4 / Version 2 \nFile size : 4.69 GiB \nDuration : 1h 41mn \nOverall bit rate mode : Variable \nOverall bit rate : 6 613 Kbps \nEncoded date : UTC 2013-07-10 13:57:16 \nWriting application : mkvmerge v6.3.0 ('You can't stop me!') built on Jun 28 2013 20:09:41 \nWriting library : libebml v1.3.0 + libmatroska v1.4.0 \nAttachment : Yes \n\nVideo \nID : 1 \nFormat : AVC \nFormat/Info : Advanced Video Codec \nFormat profile : High &lt;a class=&quot;__cf_email__&quot; href=&quot;/cdn-cgi/l/email-protection&quot; data-cfemail=&quot;4475740408706a74&quot;&gt;[email&amp;#160;protected]&lt;/a&gt;&lt;script cf-hash='f9e31' type=&quot;text/javascript&quot;&gt;\n/* &lt;![CDATA[ */!function(){try{var t=&quot;currentScript&quot;in document?document.currentScript:function(){for(var t=document.getElementsByTagName(&quot;script&quot;),e=t.length;e--;)if(t[e].getAttribute(&quot;cf-hash&quot;))return t[e]}();if(t&amp;&amp;t.previousSibling){var e,r,n,i,c=t.previousSibling,a=c.getAttribute(&quot;data-cfemail&quot;);if(a){for(e=&quot;&quot;,r=parseInt(a.substr(0,2),16),n=2;a.length-n;n+=2)i=parseInt(a.substr(n,2),16)^r,e+=String.fromCharCode(i);e=document.createTextNode(e),c.parentNode.replaceChild(e,c)}}}catch(u){}}();/* ]]&gt; */&lt;/script&gt; \nFormat settings, CABAC : Yes \nFormat settings, ReFrames : 4 frames \nCodec ID : V_MPEG4/ISO/AVC \nDuration : 1h 41mn \nBit rate : 5 905 Kbps \nWidth : 1 920 pixels \nHeight : 800 pixels \nDisplay aspect ratio : 2.40:1 \nFrame rate mode : Constant \nFrame rate : 23.976 fps \nColor space : YUV \nChroma subsampling : 4:2:0 \nBit depth : 10 bits \nScan type : Progressive \nBits/(Pixel*Frame) : 0.160 \nStream size : 4.19 GiB (89%) \nWriting library : x264 core 136 r2348+704+51 d1baef6 tMod [10-bit@all X86_64] \nEncoding settings : cabac=1 / ref=4 / deblock=1:0:0 / analyse=0x3:0x133 / me=hex / subme=7 / psy=1 / fade_compensate=0.00 / psy_rd=1.00:0.00 / mixed_ref=1 / me_range=16 / chroma_me=1 / trellis=2 / 8x8dct=1 / cqm=0 / deadzone=21,11 / fast_pskip=1 / chroma_qp_offset=-2 / threads=12 / lookahead_threads=3 / sliced_threads=0 / nr=0 / decimate=1 / interlaced=0 / bluray_compat=0 / constrained_intra=0 / fgo=0 / bframes=4 / b_pyramid=2 / b_adapt=2 / b_bias=0 / direct=3 / weightb=1 / open_gop=0 / weightp=2 / keyint=240 / keyint_min=23 / scenecut=40 / intra_refresh=0 / rc_lookahead=120 / rc=crf / mbtree=1 / crf=16.0000 / qcomp=0.60 / qpmin=0:0:0 / qpmax=81:81:81 / qpstep=4 / ip_ratio=1.40 / aq=1:1.00 / aq-sensitivity=10.00 / aq-factor=1.00:1.00:1.00 / aq2=0 / aq3=0 \nLanguage : English \nDefault : Yes \nForced : No \n\nAudio \nID : 2 \nFormat : Vorbis \nFormat settings, Floor : 1 / 8710 \nCodec ID : A_VORBIS \nDuration : 1h 41mn \nBit rate mode : Variable \nBit rate : 576 Kbps \nChannel(s) : 6 channels \nSampling rate : 48.0 KHz \nCompression mode : Lossy \nStream size : 418 MiB (9%) \nWriting library : libVorbis (Omnipresent) (20120203 (Omnipresent)) \nDefault : Yes \nForced : No \n\nText \nID : 3 \nFormat : PGS \nMuxing mode : zlib \nCodec ID : S_HDMV/PGS \nCodec ID/Info : The same subtitle format used on BDs/HD-DVDs \nDefault : Yes \nForced : No \n\nMenu \n00:00:00.000 : en:Chapter 01 \n00:03:44.265 : en:Chapter 02 \n00:06:47.907 : en:Chapter 03 \n00:09:28.234 : en:Chapter 04 \n00:12:29.165 : en:Chapter 05 \n00:16:35.953 : en:Chapter 06 \n00:20:09.541 : en:Chapter 07 \n00:24:34.014 : en:Chapter 08 \n00:29:08.747 : en:Chapter 09 \n00:34:09.047 : en:Chapter 10 \n00:37:30.164 : en:Chapter 11 \n00:40:49.071 : en:Chapter 12 \n00:45:11.583 : en:Chapter 13 \n00:51:03.268 : en:Chapter 14 \n00:55:10.098 : en:Chapter 15 \n00:59:45.248 : en:Chapter 16 \n01:04:18.646 : en:Chapter 17 \n01:06:34.031 : en:Chapter 18 \n01:09:09.270 : en:Chapter 19 \n01:12:01.942 : en:Chapter 20 \n01:16:46.226 : en:Chapter 21 \n01:19:17.836 : en:Chapter 22 \n01:21:48.194 : en:Chapter 23 \n01:26:18.631 : en:Chapter 24 \n01:30:06.984 : en:Chapter 25 \n01:32:44.850 : en:Chapter 26 \n01:37:04.235 : en:Chapter 27 \n\n","torrent":{"xt":"urn:btih:857a851d2b726e4ed41c47ff1620c08ff272a438","amp;dn":"Queen+Of+The+Damned+%281080p-10bit%29-CRF16","amp;tr":["udp%3A%2F%2Ftracker.openbittorrent.com%3A80","udp%3A%2F%2Fopen.demonii.com%3A1337","udp%3A%2F%2Ftracker.coppersurfer.tk%3A6969","udp%3A%2F%2Fexodus.desync.com%3A6969"],"infoHash":"857a851d2b726e4ed41c47ff1620c08ff272a438","infoHashBuffer":{"type":"Buffer","data":[133,122,133,29,43,114,110,78,212,28,71,255,22,32,192,143,242,114,164,56]},"announce":[],"urlList":[]}}